# xmcd CD database file
#
# Track frame offsets:
#	150
#	17435
#	27661
#	45246
#	57578
#	80266
#	91348
#	105999
#	118357
#	135471
#	145645
#	157519
#	196867
#	214673
#	224443
#	236364
#	255793
#	267448
#	280159
#	296065
#	313142
#	329398
#	339790
#
# Disc length: 4749 seconds
#
# Revision: 0
# Processed by: cddbd v1.5.2PL0 Copyright (c) Steve Scherf et al.
# Submitted via: CDex 1.79
#
DISCID=3c128b17
DTITLE=Dinah Washington - Back To The Blues [2015 Remaster and 11 Bonus Tracks]
DYEAR=1963
DGENRE=Blues
TTITLE0=The Blues Ain't Nothing But A Woman Crying For Her Man
TTITLE1=Romance In The Dark
TTITLE2=You've Been A Good Old Wagon
TTITLE3=Let Me Be The First To Know
TTITLE4=How Long, How Long Blues
TTITLE5=Don't Come Running Back To Me
TTITLE6=It's A Mean Old Man's World
TTITLE7=Key To The Highway
TTITLE8=If I Never Get To Heaven
TTITLE9=Duck Before You Drown
TTITLE10=No Hard Feelings
TTITLE11=Nobody Knows The Way I Feel This MOrning
TTITLE12=If I Never Get To Heaven (First Version)
TTITLE13=No One Man
TTITLE14=Don't Say Nothing At All
TTITLE15=Me And My Gin
TTITLE16=Just One More Chance
TTITLE17=Blue Gardenia
TTITLE18=He's My Guy
TTITLE19=I Ran Out Of Reasons
TTITLE20=Me And My Gin (First Version)
TTITLE21=I'll Never Stop Loving You
TTITLE22=Miss You
EXTD=YEAR: 1963
EXTT0=
EXTT1=
EXTT2=
EXTT3=
EXTT4=
EXTT5=
EXTT6=
EXTT7=
EXTT8=
EXTT9=
EXTT10=
EXTT11=
EXTT12=
EXTT13=
EXTT14=
EXTT15=
EXTT16=
EXTT17=
EXTT18=
EXTT19=
EXTT20=
EXTT21=
EXTT22=
PLAYORDER=
